<svg width="40" height="47" viewBox="0 0 40 47" fill="none" xmlns="http://www.w3.org/2000/svg">
<path d="M34.6752 6.02376H26.6285C26.6285 2.8156 23.7417 0.207275 20.1911 0.207275C16.6405 0.207275 13.7537 2.8156 13.7537 6.02376H5.70695C3.04147 6.02376 0.878906 7.97773 0.878906 10.3861V42.3768C0.878906 44.7852 3.04147 46.7391 5.70695 46.7391H34.6752C37.3407 46.7391 39.5033 44.7852 39.5033 42.3768V10.3861C39.5033 7.97773 37.3407 6.02376 34.6752 6.02376ZM10.535 38.7415C9.19723 38.7415 8.12098 37.769 8.12098 36.5603C8.12098 35.3516 9.19723 34.3791 10.535 34.3791C11.8728 34.3791 12.949 35.3516 12.949 36.5603C12.949 37.769 11.8728 38.7415 10.535 38.7415ZM10.535 30.0168C9.19723 30.0168 8.12098 29.0443 8.12098 27.8356C8.12098 26.6268 9.19723 25.6544 10.535 25.6544C11.8728 25.6544 12.949 26.6268 12.949 27.8356C12.949 29.0443 11.8728 30.0168 10.535 30.0168ZM10.535 21.292C9.19723 21.292 8.12098 20.3196 8.12098 19.1108C8.12098 17.9021 9.19723 16.9297 10.535 16.9297C11.8728 16.9297 12.949 17.9021 12.949 19.1108C12.949 20.3196 11.8728 21.292 10.535 21.292ZM20.1911 3.84258C21.5289 3.84258 22.6051 4.81502 22.6051 6.02376C22.6051 7.2325 21.5289 8.20494 20.1911 8.20494C18.8533 8.20494 17.7771 7.2325 17.7771 6.02376C17.7771 4.81502 18.8533 3.84258 20.1911 3.84258ZM33.0659 37.2874C33.0659 37.6872 32.7038 38.0144 32.2612 38.0144H17.7771C17.3345 38.0144 16.9724 37.6872 16.9724 37.2874V35.8332C16.9724 35.4334 17.3345 35.1062 17.7771 35.1062H32.2612C32.7038 35.1062 33.0659 35.4334 33.0659 35.8332V37.2874ZM33.0659 28.5626C33.0659 28.9625 32.7038 29.2897 32.2612 29.2897H17.7771C17.3345 29.2897 16.9724 28.9625 16.9724 28.5626V27.1085C16.9724 26.7086 17.3345 26.3815 17.7771 26.3815H32.2612C32.7038 26.3815 33.0659 26.7086 33.0659 27.1085V28.5626ZM33.0659 19.8379C33.0659 20.2378 32.7038 20.565 32.2612 20.565H17.7771C17.3345 20.565 16.9724 20.2378 16.9724 19.8379V18.3838C16.9724 17.9839 17.3345 17.6567 17.7771 17.6567H32.2612C32.7038 17.6567 33.0659 17.9839 33.0659 18.3838V19.8379Z" fill="#C83B3B"/>
</svg>
