<svg width="34" height="26" viewBox="0 0 34 26" fill="black" xmlns="http://www.w3.org/2000/svg">
<path d="M13.5 25C14.3284 25 15 24.3284 15 23.5C15 22.6716 14.3284 22 13.5 22C12.6716 22 12 22.6716 12 23.5C12 24.3284 12.6716 25 13.5 25Z" fill="black" stroke="black" stroke-linecap="round" stroke-linejoin="round"/>
<path d="M27.5 25C28.3284 25 29 24.3284 29 23.5C29 22.6716 28.3284 22 27.5 22C26.6716 22 26 22.6716 26 23.5C26 24.3284 26.6716 25 27.5 25Z" fill="black" stroke="black" stroke-linecap="round" stroke-linejoin="round"/>
<path d="M1 1H6.81818L10.7164 16.175C10.8494 16.6967 11.2137 17.1654 11.7455 17.499C12.2774 17.8326 12.9428 18.0098 13.6255 17.9996H27.7636C28.4463 18.0098 29.1117 17.8326 29.6436 17.499C30.1754 17.1654 30.5397 16.6967 30.6727 16.175L33 6.66653H8.27273" fill="black"/>
<path d="M1 1H6.81818L10.7164 16.175C10.8494 16.6967 11.2137 17.1654 11.7455 17.499C12.2774 17.8326 12.9428 18.0098 13.6255 17.9996H27.7636C28.4463 18.0098 29.1117 17.8326 29.6436 17.499C30.1754 17.1654 30.5397 16.6967 30.6727 16.175L33 6.66653H8.27273" stroke="black" stroke-linecap="round" stroke-linejoin="round"/>
</svg>
