<svg width="157" height="157" viewBox="0 0 157 157" fill="none" xmlns="http://www.w3.org/2000/svg">
<circle cx="78.0664" cy="78.0664" r="78.0664" fill="#CE2020"/>
<path d="M91.7159 78.5L113.038 57.1783C115.654 54.5618 115.654 50.3196 113.038 47.701L108.299 42.9624C105.683 40.3459 101.44 40.3459 98.8217 42.9624L77.5 64.2841L56.1783 42.9624C53.5618 40.3459 49.3196 40.3459 46.701 42.9624L41.9624 47.701C39.3459 50.3175 39.3459 54.5597 41.9624 57.1783L63.2841 78.5L41.9624 99.8217C39.3459 102.438 39.3459 106.68 41.9624 109.299L46.701 114.038C49.3175 116.654 53.5618 116.654 56.1783 114.038L77.5 92.7159L98.8217 114.038C101.438 116.654 105.683 116.654 108.299 114.038L113.038 109.299C115.654 106.683 115.654 102.44 113.038 99.8217L91.7159 78.5Z" fill="white"/>
</svg>
