<svg width="63" height="50" viewBox="0 0 63 60" fill="none" xmlns="http://www.w3.org/2000/svg">
<path d="M31.6687 37.1304C34.5514 37.1304 36.8882 34.9141 36.8882 32.1802C36.8882 29.4463 34.5514 27.23 31.6687 27.23C28.7861 27.23 26.4492 29.4463 26.4492 32.1802C26.4492 34.9141 28.7861 37.1304 31.6687 37.1304Z" stroke="black" stroke-width="5" stroke-linecap="round" stroke-linejoin="round"/>
<path d="M35.4531 28.5913L40.8031 23.5173" stroke="black" stroke-width="5" stroke-linecap="round" stroke-linejoin="round"/>
<path d="M17.0548 49.5059C13.2397 46.63 10.4623 42.6999 9.10753 38.2602C7.75271 33.8204 7.88757 29.091 9.49342 24.7272C11.0993 20.3634 14.0966 16.5814 18.07 13.9053C22.0434 11.2292 26.7961 9.7915 31.6694 9.7915C36.5428 9.7915 41.2955 11.2292 45.2689 13.9053C49.2423 16.5814 52.2396 20.3634 53.8455 24.7272C55.4513 29.091 55.5862 33.8204 54.2314 38.2602C52.8766 42.6999 50.0992 46.63 46.2841 49.5059H17.0548Z" stroke="black" stroke-width="5" stroke-linecap="round" stroke-linejoin="round"/>
</svg>
