<svg width="25" height="25" viewBox="0 0 25 25" fill="none" xmlns="http://www.w3.org/2000/svg">
<path d="M22.6562 20.3125H2.34375C2.13655 20.3125 1.93784 20.3948 1.79132 20.5413C1.64481 20.6878 1.5625 20.8865 1.5625 21.0938L1.5625 22.6562C1.5625 22.8635 1.64481 23.0622 1.79132 23.2087C1.93784 23.3552 2.13655 23.4375 2.34375 23.4375H22.6562C22.8635 23.4375 23.0622 23.3552 23.2087 23.2087C23.3552 23.0622 23.4375 22.8635 23.4375 22.6562V21.0938C23.4375 20.8865 23.3552 20.6878 23.2087 20.5413C23.0622 20.3948 22.8635 20.3125 22.6562 20.3125ZM22.6562 14.0625H2.34375C2.13655 14.0625 1.93784 14.1448 1.79132 14.2913C1.64481 14.4378 1.5625 14.6365 1.5625 14.8438L1.5625 16.4062C1.5625 16.6135 1.64481 16.8122 1.79132 16.9587C1.93784 17.1052 2.13655 17.1875 2.34375 17.1875H22.6562C22.8635 17.1875 23.0622 17.1052 23.2087 16.9587C23.3552 16.8122 23.4375 16.6135 23.4375 16.4062V14.8438C23.4375 14.6365 23.3552 14.4378 23.2087 14.2913C23.0622 14.1448 22.8635 14.0625 22.6562 14.0625ZM22.6562 7.8125H2.34375C2.13655 7.8125 1.93784 7.89481 1.79132 8.04132C1.64481 8.18784 1.5625 8.38655 1.5625 8.59375L1.5625 10.1562C1.5625 10.3635 1.64481 10.5622 1.79132 10.7087C1.93784 10.8552 2.13655 10.9375 2.34375 10.9375H22.6562C22.8635 10.9375 23.0622 10.8552 23.2087 10.7087C23.3552 10.5622 23.4375 10.3635 23.4375 10.1562V8.59375C23.4375 8.38655 23.3552 8.18784 23.2087 8.04132C23.0622 7.89481 22.8635 7.8125 22.6562 7.8125ZM22.6562 1.5625H2.34375C2.13655 1.5625 1.93784 1.64481 1.79132 1.79132C1.64481 1.93784 1.5625 2.13655 1.5625 2.34375L1.5625 3.90625C1.5625 4.11345 1.64481 4.31216 1.79132 4.45868C1.93784 4.60519 2.13655 4.6875 2.34375 4.6875H22.6562C22.8635 4.6875 23.0622 4.60519 23.2087 4.45868C23.3552 4.31216 23.4375 4.11345 23.4375 3.90625V2.34375C23.4375 2.13655 23.3552 1.93784 23.2087 1.79132C23.0622 1.64481 22.8635 1.5625 22.6562 1.5625V1.5625Z" fill="black"/>
</svg>
