<svg width="159" height="41" viewBox="0 0 159 41" fill="none" xmlns="http://www.w3.org/2000/svg">
<path d="M20.5 0C16.4455 -4.83496e-08 12.482 1.2023 9.11081 3.45487C5.7396 5.70744 3.11207 8.9091 1.56047 12.655C0.00887314 16.4009 -0.397095 20.5227 0.393902 24.4994C1.1849 28.476 3.13733 32.1287 6.00431 34.9957C8.87129 37.8627 12.524 39.8151 16.5006 40.6061C20.4773 41.3971 24.5991 40.9911 28.345 39.4395C32.0909 37.8879 35.2926 35.2604 37.5451 31.8892C39.7977 28.518 41 24.5545 41 20.5L25.4738 20.5C25.4738 21.4837 25.1821 22.4454 24.6356 23.2633C24.0891 24.0813 23.3122 24.7188 22.4034 25.0952C21.4946 25.4717 20.4945 25.5702 19.5297 25.3783C18.5648 25.1863 17.6786 24.7126 16.983 24.017C16.2874 23.3214 15.8137 22.4352 15.6217 21.4703C15.4298 20.5055 15.5283 19.5054 15.9048 18.5966C16.2812 17.6878 16.9187 16.9109 17.7367 16.3644C18.5546 15.8179 19.5163 15.5262 20.5 15.5262L20.5 0Z" fill="#D9D9D9"/>
<path d="M48.416 31.192C47.136 31.192 45.912 31 44.744 30.616C43.576 30.216 42.656 29.704 41.984 29.08L42.872 27.208C43.512 27.768 44.328 28.232 45.32 28.6C46.312 28.968 47.344 29.152 48.416 29.152C49.392 29.152 50.184 29.04 50.792 28.816C51.4 28.592 51.848 28.288 52.136 27.904C52.424 27.504 52.568 27.056 52.568 26.56C52.568 25.984 52.376 25.52 51.992 25.168C51.624 24.816 51.136 24.536 50.528 24.328C49.936 24.104 49.28 23.912 48.56 23.752C47.84 23.592 47.112 23.408 46.376 23.2C45.656 22.976 44.992 22.696 44.384 22.36C43.792 22.024 43.312 21.576 42.944 21.016C42.576 20.44 42.392 19.704 42.392 18.808C42.392 17.944 42.616 17.152 43.064 16.432C43.528 15.696 44.232 15.112 45.176 14.68C46.136 14.232 47.352 14.008 48.824 14.008C49.8 14.008 50.768 14.136 51.728 14.392C52.688 14.648 53.52 15.016 54.224 15.496L53.432 17.416C52.712 16.936 51.952 16.592 51.152 16.384C50.352 16.16 49.576 16.048 48.824 16.048C47.88 16.048 47.104 16.168 46.496 16.408C45.888 16.648 45.44 16.968 45.152 17.368C44.88 17.768 44.744 18.216 44.744 18.712C44.744 19.304 44.928 19.776 45.296 20.128C45.68 20.48 46.168 20.76 46.76 20.968C47.368 21.176 48.032 21.368 48.752 21.544C49.472 21.704 50.192 21.888 50.912 22.096C51.648 22.304 52.312 22.576 52.904 22.912C53.512 23.248 54 23.696 54.368 24.256C54.736 24.816 54.92 25.536 54.92 26.416C54.92 27.264 54.688 28.056 54.224 28.792C53.76 29.512 53.04 30.096 52.064 30.544C51.104 30.976 49.888 31.192 48.416 31.192ZM64.8823 18.16C65.9223 18.16 66.8343 18.36 67.6183 18.76C68.4183 19.16 69.0423 19.768 69.4903 20.584C69.9383 21.4 70.1623 22.432 70.1623 23.68V31H67.8583V23.944C67.8583 22.712 67.5543 21.784 66.9463 21.16C66.3543 20.536 65.5143 20.224 64.4263 20.224C63.6103 20.224 62.8983 20.384 62.2903 20.704C61.6823 21.024 61.2103 21.496 60.8743 22.12C60.5543 22.744 60.3943 23.52 60.3943 24.448V31H58.0903V13.192H60.3943V21.712L59.9383 20.8C60.3543 19.968 60.9943 19.32 61.8583 18.856C62.7223 18.392 63.7303 18.16 64.8823 18.16ZM79.8742 31.144C78.5942 31.144 77.4582 30.864 76.4662 30.304C75.4742 29.744 74.6902 28.976 74.1142 28C73.5382 27.008 73.2502 25.888 73.2502 24.64C73.2502 23.376 73.5382 22.256 74.1142 21.28C74.6902 20.304 75.4742 19.544 76.4662 19C77.4582 18.44 78.5942 18.16 79.8742 18.16C81.1382 18.16 82.2662 18.44 83.2582 19C84.2662 19.544 85.0502 20.304 85.6102 21.28C86.1862 22.24 86.4742 23.36 86.4742 24.64C86.4742 25.904 86.1862 27.024 85.6102 28C85.0502 28.976 84.2662 29.744 83.2582 30.304C82.2662 30.864 81.1382 31.144 79.8742 31.144ZM79.8742 29.128C80.6902 29.128 81.4182 28.944 82.0582 28.576C82.7142 28.208 83.2262 27.688 83.5942 27.016C83.9622 26.328 84.1462 25.536 84.1462 24.64C84.1462 23.728 83.9622 22.944 83.5942 22.288C83.2262 21.616 82.7142 21.096 82.0582 20.728C81.4182 20.36 80.6902 20.176 79.8742 20.176C79.0582 20.176 78.3302 20.36 77.6902 20.728C77.0502 21.096 76.5382 21.616 76.1542 22.288C75.7702 22.944 75.5782 23.728 75.5782 24.64C75.5782 25.536 75.7702 26.328 76.1542 27.016C76.5382 27.688 77.0502 28.208 77.6902 28.576C78.3302 28.944 79.0582 29.128 79.8742 29.128ZM95.3246 31.144C93.9646 31.144 92.7646 30.864 91.7246 30.304C90.7006 29.744 89.9006 28.976 89.3246 28C88.7646 27.024 88.4846 25.904 88.4846 24.64C88.4846 23.376 88.7566 22.256 89.3006 21.28C89.8606 20.304 90.6206 19.544 91.5806 19C92.5566 18.44 93.6526 18.16 94.8686 18.16C96.1006 18.16 97.1886 18.432 98.1326 18.976C99.0766 19.52 99.8126 20.288 100.341 21.28C100.885 22.256 101.157 23.4 101.157 24.712C101.157 24.808 101.149 24.92 101.133 25.048C101.133 25.176 101.125 25.296 101.109 25.408H90.2846V23.752H99.9086L98.9726 24.328C98.9886 23.512 98.8206 22.784 98.4686 22.144C98.1166 21.504 97.6286 21.008 97.0046 20.656C96.3966 20.288 95.6846 20.104 94.8686 20.104C94.0686 20.104 93.3566 20.288 92.7326 20.656C92.1086 21.008 91.6206 21.512 91.2686 22.168C90.9166 22.808 90.7406 23.544 90.7406 24.376V24.76C90.7406 25.608 90.9326 26.368 91.3166 27.04C91.7166 27.696 92.2686 28.208 92.9726 28.576C93.6766 28.944 94.4846 29.128 95.3966 29.128C96.1486 29.128 96.8286 29 97.4366 28.744C98.0606 28.488 98.6046 28.104 99.0686 27.592L100.341 29.08C99.7646 29.752 99.0446 30.264 98.1806 30.616C97.3326 30.968 96.3806 31.144 95.3246 31.144ZM109.588 31.192C108.308 31.192 107.084 31 105.916 30.616C104.748 30.216 103.828 29.704 103.156 29.08L104.044 27.208C104.684 27.768 105.5 28.232 106.492 28.6C107.484 28.968 108.516 29.152 109.588 29.152C110.564 29.152 111.356 29.04 111.964 28.816C112.572 28.592 113.02 28.288 113.308 27.904C113.596 27.504 113.74 27.056 113.74 26.56C113.74 25.984 113.548 25.52 113.164 25.168C112.796 24.816 112.308 24.536 111.7 24.328C111.108 24.104 110.452 23.912 109.732 23.752C109.012 23.592 108.284 23.408 107.548 23.2C106.828 22.976 106.164 22.696 105.556 22.36C104.964 22.024 104.484 21.576 104.116 21.016C103.748 20.44 103.564 19.704 103.564 18.808C103.564 17.944 103.788 17.152 104.236 16.432C104.7 15.696 105.404 15.112 106.348 14.68C107.308 14.232 108.524 14.008 109.996 14.008C110.972 14.008 111.94 14.136 112.9 14.392C113.86 14.648 114.692 15.016 115.396 15.496L114.604 17.416C113.884 16.936 113.124 16.592 112.324 16.384C111.524 16.16 110.748 16.048 109.996 16.048C109.052 16.048 108.276 16.168 107.668 16.408C107.06 16.648 106.612 16.968 106.324 17.368C106.052 17.768 105.916 18.216 105.916 18.712C105.916 19.304 106.1 19.776 106.468 20.128C106.852 20.48 107.34 20.76 107.932 20.968C108.54 21.176 109.204 21.368 109.924 21.544C110.644 21.704 111.364 21.888 112.084 22.096C112.82 22.304 113.484 22.576 114.076 22.912C114.684 23.248 115.172 23.696 115.54 24.256C115.908 24.816 116.092 25.536 116.092 26.416C116.092 27.264 115.86 28.056 115.396 28.792C114.932 29.512 114.212 30.096 113.236 30.544C112.276 30.976 111.06 31.192 109.588 31.192ZM123.63 31.144C122.35 31.144 121.358 30.8 120.654 30.112C119.95 29.424 119.598 28.44 119.598 27.16V15.496H121.902V27.064C121.902 27.752 122.07 28.28 122.406 28.648C122.758 29.016 123.254 29.2 123.894 29.2C124.614 29.2 125.214 29 125.694 28.6L126.414 30.256C126.062 30.56 125.638 30.784 125.142 30.928C124.662 31.072 124.158 31.144 123.63 31.144ZM117.438 20.176V18.28H125.55V20.176H117.438ZM134.226 31.144C132.946 31.144 131.81 30.864 130.818 30.304C129.826 29.744 129.042 28.976 128.466 28C127.89 27.008 127.602 25.888 127.602 24.64C127.602 23.376 127.89 22.256 128.466 21.28C129.042 20.304 129.826 19.544 130.818 19C131.81 18.44 132.946 18.16 134.226 18.16C135.49 18.16 136.618 18.44 137.61 19C138.618 19.544 139.402 20.304 139.962 21.28C140.538 22.24 140.826 23.36 140.826 24.64C140.826 25.904 140.538 27.024 139.962 28C139.402 28.976 138.618 29.744 137.61 30.304C136.618 30.864 135.49 31.144 134.226 31.144ZM134.226 29.128C135.042 29.128 135.77 28.944 136.41 28.576C137.066 28.208 137.578 27.688 137.946 27.016C138.314 26.328 138.498 25.536 138.498 24.64C138.498 23.728 138.314 22.944 137.946 22.288C137.578 21.616 137.066 21.096 136.41 20.728C135.77 20.36 135.042 20.176 134.226 20.176C133.41 20.176 132.682 20.36 132.042 20.728C131.402 21.096 130.89 21.616 130.506 22.288C130.122 22.944 129.93 23.728 129.93 24.64C129.93 25.536 130.122 26.328 130.506 27.016C130.89 27.688 131.402 28.208 132.042 28.576C132.682 28.944 133.41 29.128 134.226 29.128ZM150.756 31.144C149.7 31.144 148.732 30.904 147.852 30.424C146.988 29.928 146.292 29.2 145.764 28.24C145.252 27.28 144.996 26.08 144.996 24.64C144.996 23.2 145.244 22 145.74 21.04C146.252 20.08 146.94 19.36 147.804 18.88C148.684 18.4 149.668 18.16 150.756 18.16C152.004 18.16 153.108 18.432 154.068 18.976C155.028 19.52 155.788 20.28 156.348 21.256C156.908 22.216 157.188 23.344 157.188 24.64C157.188 25.936 156.908 27.072 156.348 28.048C155.788 29.024 155.028 29.784 154.068 30.328C153.108 30.872 152.004 31.144 150.756 31.144ZM144.012 35.656V18.28H146.22V21.712L146.076 24.664L146.316 27.616V35.656H144.012ZM150.564 29.128C151.38 29.128 152.108 28.944 152.748 28.576C153.404 28.208 153.916 27.688 154.284 27.016C154.668 26.328 154.86 25.536 154.86 24.64C154.86 23.728 154.668 22.944 154.284 22.288C153.916 21.616 153.404 21.096 152.748 20.728C152.108 20.36 151.38 20.176 150.564 20.176C149.764 20.176 149.036 20.36 148.38 20.728C147.74 21.096 147.228 21.616 146.844 22.288C146.476 22.944 146.292 23.728 146.292 24.64C146.292 25.536 146.476 26.328 146.844 27.016C147.228 27.688 147.74 28.208 148.38 28.576C149.036 28.944 149.764 29.128 150.564 29.128Z" fill="black"/>
</svg>
