<svg width="229" height="59" viewBox="0 0 229 59" fill="none" xmlns="http://www.w3.org/2000/svg">
<path d="M29.5 0C23.6655 -6.95763e-08 17.9619 1.73014 13.1107 4.97165C8.25943 8.21315 4.47834 12.8204 2.24555 18.2108C0.0127687 23.6013 -0.57143 29.5327 0.566834 35.2552C1.7051 40.9776 4.5147 46.234 8.64035 50.3596C12.766 54.4853 18.0224 57.2949 23.7448 58.4332C29.4673 59.5714 35.3987 58.9872 40.7892 56.7544C46.1796 54.5217 50.7869 50.7406 54.0284 45.8893C57.2699 41.0381 59 35.3345 59 29.5H36.6575C36.6575 30.9156 36.2377 32.2994 35.4512 33.4765C34.6647 34.6535 33.5469 35.5709 32.239 36.1126C30.9312 36.6544 29.4921 36.7961 28.1036 36.5199C26.7152 36.2438 25.4399 35.5621 24.4389 34.5611C23.4379 33.5601 22.7562 32.2848 22.4801 30.8964C22.2039 29.5079 22.3456 28.0688 22.8874 26.761C23.4291 25.4531 24.3465 24.3353 25.5235 23.5488C26.7006 22.7623 28.0844 22.3425 29.5 22.3425L29.5 0Z" fill="black"/>
<path d="M68.888 42.7682C67.1813 42.7682 65.5493 42.5122 63.992 42.0002C62.4347 41.4669 61.208 40.7842 60.312 39.9522L61.496 37.4562C62.3493 38.2029 63.4373 38.8215 64.76 39.3122C66.0827 39.8029 67.4587 40.0482 68.888 40.0482C70.1893 40.0482 71.2453 39.8989 72.056 39.6002C72.8667 39.3015 73.464 38.8962 73.848 38.3842C74.232 37.8509 74.424 37.2535 74.424 36.5922C74.424 35.8242 74.168 35.2055 73.656 34.7362C73.1653 34.2669 72.5147 33.8935 71.704 33.6162C70.9147 33.3175 70.04 33.0615 69.08 32.8482C68.12 32.6349 67.1493 32.3895 66.168 32.1122C65.208 31.8135 64.3227 31.4402 63.512 30.9922C62.7227 30.5442 62.0827 29.9469 61.592 29.2002C61.1013 28.4322 60.856 27.4509 60.856 26.2562C60.856 25.1042 61.1547 24.0482 61.752 23.0882C62.3707 22.1069 63.3093 21.3282 64.568 20.7522C65.848 20.1549 67.4693 19.8562 69.432 19.8562C70.7333 19.8562 72.024 20.0269 73.304 20.3682C74.584 20.7095 75.6933 21.2002 76.632 21.8402L75.576 24.4002C74.616 23.7602 73.6027 23.3015 72.536 23.0242C71.4693 22.7255 70.4347 22.5762 69.432 22.5762C68.1733 22.5762 67.1387 22.7362 66.328 23.0562C65.5173 23.3762 64.92 23.8029 64.536 24.3362C64.1733 24.8695 63.992 25.4669 63.992 26.1282C63.992 26.9175 64.2373 27.5469 64.728 28.0162C65.24 28.4855 65.8907 28.8589 66.68 29.1362C67.4907 29.4135 68.376 29.6695 69.336 29.9042C70.296 30.1175 71.256 30.3629 72.216 30.6402C73.1973 30.9175 74.0827 31.2802 74.872 31.7282C75.6827 32.1762 76.3333 32.7735 76.824 33.5202C77.3147 34.2669 77.56 35.2269 77.56 36.4002C77.56 37.5309 77.2507 38.5869 76.632 39.5682C76.0133 40.5282 75.0533 41.3069 73.752 41.9042C72.472 42.4802 70.8507 42.7682 68.888 42.7682ZM90.843 25.3922C92.2297 25.3922 93.4457 25.6589 94.491 26.1922C95.5577 26.7255 96.3897 27.5362 96.987 28.6242C97.5843 29.7122 97.883 31.0882 97.883 32.7522V42.5122H94.811V33.1042C94.811 31.4615 94.4057 30.2242 93.595 29.3922C92.8057 28.5602 91.6857 28.1442 90.235 28.1442C89.147 28.1442 88.1977 28.3575 87.387 28.7842C86.5763 29.2109 85.947 29.8402 85.499 30.6722C85.0723 31.5042 84.859 32.5389 84.859 33.7762V42.5122H81.787V18.7682H84.859V30.1282L84.251 28.9122C84.8057 27.8029 85.659 26.9389 86.811 26.3202C87.963 25.7015 89.307 25.3922 90.843 25.3922ZM110.832 42.7042C109.126 42.7042 107.611 42.3309 106.288 41.5842C104.966 40.8375 103.92 39.8135 103.152 38.5122C102.384 37.1895 102 35.6962 102 34.0322C102 32.3469 102.384 30.8535 103.152 29.5522C103.92 28.2509 104.966 27.2375 106.288 26.5122C107.611 25.7655 109.126 25.3922 110.832 25.3922C112.518 25.3922 114.022 25.7655 115.344 26.5122C116.688 27.2375 117.734 28.2509 118.48 29.5522C119.248 30.8322 119.632 32.3255 119.632 34.0322C119.632 35.7175 119.248 37.2109 118.48 38.5122C117.734 39.8135 116.688 40.8375 115.344 41.5842C114.022 42.3309 112.518 42.7042 110.832 42.7042ZM110.832 40.0162C111.92 40.0162 112.891 39.7709 113.744 39.2802C114.619 38.7895 115.302 38.0962 115.792 37.2002C116.283 36.2829 116.528 35.2269 116.528 34.0322C116.528 32.8162 116.283 31.7709 115.792 30.8962C115.302 30.0002 114.619 29.3069 113.744 28.8162C112.891 28.3255 111.92 28.0802 110.832 28.0802C109.744 28.0802 108.774 28.3255 107.92 28.8162C107.067 29.3069 106.384 30.0002 105.872 30.8962C105.36 31.7709 105.104 32.8162 105.104 34.0322C105.104 35.2269 105.36 36.2829 105.872 37.2002C106.384 38.0962 107.067 38.7895 107.92 39.2802C108.774 39.7709 109.744 40.0162 110.832 40.0162ZM131.433 42.7042C129.619 42.7042 128.019 42.3309 126.633 41.5842C125.267 40.8375 124.201 39.8135 123.433 38.5122C122.686 37.2109 122.313 35.7175 122.313 34.0322C122.313 32.3469 122.675 30.8535 123.401 29.5522C124.147 28.2509 125.161 27.2375 126.441 26.5122C127.742 25.7655 129.203 25.3922 130.825 25.3922C132.467 25.3922 133.918 25.7549 135.177 26.4802C136.435 27.2055 137.417 28.2295 138.121 29.5522C138.846 30.8535 139.209 32.3789 139.209 34.1282C139.209 34.2562 139.198 34.4055 139.177 34.5762C139.177 34.7469 139.166 34.9069 139.145 35.0562H124.713V32.8482H137.545L136.297 33.6162C136.318 32.5282 136.094 31.5575 135.625 30.7042C135.155 29.8509 134.505 29.1895 133.673 28.7202C132.862 28.2295 131.913 27.9842 130.825 27.9842C129.758 27.9842 128.809 28.2295 127.977 28.7202C127.145 29.1895 126.494 29.8615 126.025 30.7362C125.555 31.5895 125.321 32.5709 125.321 33.6802V34.1922C125.321 35.3229 125.577 36.3362 126.089 37.2322C126.622 38.1069 127.358 38.7895 128.297 39.2802C129.235 39.7709 130.313 40.0162 131.529 40.0162C132.531 40.0162 133.438 39.8455 134.249 39.5042C135.081 39.1629 135.806 38.6509 136.425 37.9682L138.121 39.9522C137.353 40.8482 136.393 41.5309 135.241 42.0002C134.11 42.4695 132.841 42.7042 131.433 42.7042ZM150.451 42.7682C148.744 42.7682 147.112 42.5122 145.555 42.0002C143.997 41.4669 142.771 40.7842 141.875 39.9522L143.059 37.4562C143.912 38.2029 145 38.8215 146.323 39.3122C147.645 39.8029 149.021 40.0482 150.451 40.0482C151.752 40.0482 152.808 39.8989 153.619 39.6002C154.429 39.3015 155.027 38.8962 155.411 38.3842C155.795 37.8509 155.987 37.2535 155.987 36.5922C155.987 35.8242 155.731 35.2055 155.219 34.7362C154.728 34.2669 154.077 33.8935 153.267 33.6162C152.477 33.3175 151.603 33.0615 150.643 32.8482C149.683 32.6349 148.712 32.3895 147.731 32.1122C146.771 31.8135 145.885 31.4402 145.075 30.9922C144.285 30.5442 143.645 29.9469 143.155 29.2002C142.664 28.4322 142.419 27.4509 142.419 26.2562C142.419 25.1042 142.717 24.0482 143.315 23.0882C143.933 22.1069 144.872 21.3282 146.131 20.7522C147.411 20.1549 149.032 19.8562 150.995 19.8562C152.296 19.8562 153.587 20.0269 154.867 20.3682C156.147 20.7095 157.256 21.2002 158.194 21.8402L157.139 24.4002C156.179 23.7602 155.165 23.3015 154.099 23.0242C153.032 22.7255 151.997 22.5762 150.995 22.5762C149.736 22.5762 148.701 22.7362 147.891 23.0562C147.08 23.3762 146.483 23.8029 146.099 24.3362C145.736 24.8695 145.555 25.4669 145.555 26.1282C145.555 26.9175 145.8 27.5469 146.291 28.0162C146.803 28.4855 147.453 28.8589 148.243 29.1362C149.053 29.4135 149.939 29.6695 150.899 29.9042C151.859 30.1175 152.819 30.3629 153.779 30.6402C154.76 30.9175 155.645 31.2802 156.435 31.7282C157.245 32.1762 157.896 32.7735 158.387 33.5202C158.877 34.2669 159.123 35.2269 159.123 36.4002C159.123 37.5309 158.813 38.5869 158.194 39.5682C157.576 40.5282 156.616 41.3069 155.315 41.9042C154.035 42.4802 152.413 42.7682 150.451 42.7682ZM169.174 42.7042C167.467 42.7042 166.144 42.2455 165.206 41.3282C164.267 40.4109 163.798 39.0989 163.798 37.3922V21.8402H166.87V37.2642C166.87 38.1815 167.094 38.8855 167.542 39.3762C168.011 39.8669 168.672 40.1122 169.526 40.1122C170.486 40.1122 171.286 39.8455 171.926 39.3122L172.886 41.5202C172.416 41.9255 171.851 42.2242 171.19 42.4162C170.55 42.6082 169.878 42.7042 169.174 42.7042ZM160.918 28.0802V25.5522H171.734V28.0802H160.918ZM183.301 42.7042C181.594 42.7042 180.08 42.3309 178.757 41.5842C177.434 40.8375 176.389 39.8135 175.621 38.5122C174.853 37.1895 174.469 35.6962 174.469 34.0322C174.469 32.3469 174.853 30.8535 175.621 29.5522C176.389 28.2509 177.434 27.2375 178.757 26.5122C180.08 25.7655 181.594 25.3922 183.301 25.3922C184.986 25.3922 186.49 25.7655 187.813 26.5122C189.157 27.2375 190.202 28.2509 190.949 29.5522C191.717 30.8322 192.101 32.3255 192.101 34.0322C192.101 35.7175 191.717 37.2109 190.949 38.5122C190.202 39.8135 189.157 40.8375 187.813 41.5842C186.49 42.3309 184.986 42.7042 183.301 42.7042ZM183.301 40.0162C184.389 40.0162 185.36 39.7709 186.213 39.2802C187.088 38.7895 187.77 38.0962 188.261 37.2002C188.752 36.2829 188.997 35.2269 188.997 34.0322C188.997 32.8162 188.752 31.7709 188.261 30.8962C187.77 30.0002 187.088 29.3069 186.213 28.8162C185.36 28.3255 184.389 28.0802 183.301 28.0802C182.213 28.0802 181.242 28.3255 180.389 28.8162C179.536 29.3069 178.853 30.0002 178.341 30.8962C177.829 31.7709 177.573 32.8162 177.573 34.0322C177.573 35.2269 177.829 36.2829 178.341 37.2002C178.853 38.0962 179.536 38.7895 180.389 39.2802C181.242 39.7709 182.213 40.0162 183.301 40.0162ZM205.342 42.7042C203.934 42.7042 202.643 42.3842 201.47 41.7442C200.318 41.0829 199.39 40.1122 198.686 38.8322C198.003 37.5522 197.661 35.9522 197.661 34.0322C197.661 32.1122 197.992 30.5122 198.654 29.2322C199.336 27.9522 200.254 26.9922 201.406 26.3522C202.579 25.7122 203.891 25.3922 205.342 25.3922C207.006 25.3922 208.478 25.7549 209.758 26.4802C211.038 27.2055 212.051 28.2189 212.798 29.5202C213.544 30.8002 213.918 32.3042 213.918 34.0322C213.918 35.7602 213.544 37.2749 212.798 38.5762C212.051 39.8775 211.038 40.8909 209.758 41.6162C208.478 42.3415 207.006 42.7042 205.342 42.7042ZM196.35 48.7202V25.5522H199.294V30.1282L199.102 34.0642L199.422 38.0002V48.7202H196.35ZM205.086 40.0162C206.174 40.0162 207.144 39.7709 207.998 39.2802C208.872 38.7895 209.555 38.0962 210.046 37.2002C210.558 36.2829 210.814 35.2269 210.814 34.0322C210.814 32.8162 210.558 31.7709 210.046 30.8962C209.555 30.0002 208.872 29.3069 207.998 28.8162C207.144 28.3255 206.174 28.0802 205.086 28.0802C204.019 28.0802 203.048 28.3255 202.174 28.8162C201.32 29.3069 200.638 30.0002 200.126 30.8962C199.635 31.7709 199.39 32.8162 199.39 34.0322C199.39 35.2269 199.635 36.2829 200.126 37.2002C200.638 38.0962 201.32 38.7895 202.174 39.2802C203.048 39.7709 204.019 40.0162 205.086 40.0162Z" fill="black"/>
</svg>
