<svg width="41" height="41" viewBox="0 0 41 41" fill="none" xmlns="http://www.w3.org/2000/svg">
<path d="M20.5 0C16.4455 -4.83496e-08 12.482 1.2023 9.11081 3.45487C5.7396 5.70744 3.11207 8.9091 1.56047 12.655C0.00887314 16.4009 -0.397095 20.5227 0.393902 24.4994C1.1849 28.476 3.13733 32.1287 6.00431 34.9957C8.87129 37.8627 12.524 39.8151 16.5006 40.6061C20.4773 41.3971 24.5991 40.9911 28.345 39.4395C32.0909 37.8879 35.2926 35.2604 37.5451 31.8892C39.7977 28.518 41 24.5545 41 20.5H25.4738C25.4738 21.4837 25.1821 22.4454 24.6356 23.2633C24.0891 24.0813 23.3122 24.7188 22.4034 25.0952C21.4946 25.4717 20.4945 25.5702 19.5297 25.3783C18.5648 25.1863 17.6786 24.7126 16.983 24.017C16.2874 23.3214 15.8137 22.4352 15.6217 21.4703C15.4298 20.5055 15.5283 19.5054 15.9048 18.5966C16.2812 17.6878 16.9187 16.9109 17.7367 16.3644C18.5546 15.8179 19.5163 15.5262 20.5 15.5262V0Z" fill="#D9D9D9"/>
</svg>
