<svg width="45" height="33" viewBox="0 0 45 33" fill="none" xmlns="http://www.w3.org/2000/svg">
<path d="M43.7684 18.0458L29.153 32.3371C27.8481 33.6131 25.5862 32.7199 25.5862 30.891V22.7245H13.7547C12.5976 22.7245 11.6668 21.8143 11.6668 20.6829V12.5164C11.6668 11.385 12.5976 10.4748 13.7547 10.4748H25.5862V2.30832C25.5862 0.487877 27.8394 -0.413838 29.153 0.862174L43.7684 15.1535C44.5774 15.9531 44.5774 17.2462 43.7684 18.0458ZM17.2345 31.9118V28.5091C17.2345 27.9476 16.7647 27.4883 16.1906 27.4883H8.88288C7.34305 27.4883 6.09901 26.2718 6.09901 24.7661V8.43317C6.09901 6.92748 7.34305 5.71102 8.88288 5.71102H16.1906C16.7647 5.71102 17.2345 5.25165 17.2345 4.69021V1.28751C17.2345 0.726066 16.7647 0.266702 16.1906 0.266702H8.88288C4.27209 0.266702 0.53125 3.9246 0.53125 8.43317V24.7661C0.53125 29.2747 4.27209 32.9326 8.88288 32.9326H16.1906C16.7647 32.9326 17.2345 32.4732 17.2345 31.9118Z" fill="#CE2020"/>
</svg>
