<svg width="130" height="20" viewBox="0 0 166 33" fill="none" xmlns="http://www.w3.org/2000/svg">
<path d="M43.7688 17.9598L29.1535 32.3949C27.8485 33.6837 25.5866 32.7815 25.5866 30.9342V22.6856H13.7552C12.5981 22.6856 11.6672 21.7662 11.6672 20.6234V12.3748C11.6672 11.232 12.5981 10.3126 13.7552 10.3126H25.5866V2.06398C25.5866 0.225228 27.8398 -0.685558 29.1535 0.60329L43.7688 15.0384C44.5779 15.8461 44.5779 17.1521 43.7688 17.9598ZM17.235 31.9653V28.5283C17.235 27.9612 16.7652 27.4973 16.1911 27.4973H8.88337C7.34354 27.4973 6.09949 26.2686 6.09949 24.7477V8.25046C6.09949 6.72962 7.34354 5.50091 8.88337 5.50091H16.1911C16.7652 5.50091 17.235 5.03693 17.235 4.46984V1.03291C17.235 0.465813 16.7652 0.00182746 16.1911 0.00182746H8.88337C4.27257 0.00182746 0.531738 3.69653 0.531738 8.25046V24.7477C0.531738 29.3016 4.27257 32.9963 8.88337 32.9963H16.1911C16.7652 32.9963 17.235 32.5324 17.235 31.9653Z" fill="#CE2020"/>
<path d="M53.2639 26V8.5H55.7639V23.825H65.2389V26H53.2639ZM75.6903 26.2C74.357 26.2 73.1153 25.975 71.9653 25.525C70.832 25.075 69.8486 24.45 69.0153 23.65C68.182 22.8333 67.5319 21.8833 67.0653 20.8C66.5986 19.7167 66.3653 18.5333 66.3653 17.25C66.3653 15.9667 66.5986 14.7833 67.0653 13.7C67.5319 12.6167 68.182 11.675 69.0153 10.875C69.8486 10.0583 70.832 9.425 71.9653 8.975C73.0986 8.525 74.3403 8.3 75.6903 8.3C77.0236 8.3 78.2486 8.525 79.3653 8.975C80.4986 9.40833 81.482 10.0333 82.3153 10.85C83.1653 11.65 83.8153 12.5917 84.2653 13.675C84.732 14.7583 84.9653 15.95 84.9653 17.25C84.9653 18.55 84.732 19.7417 84.2653 20.825C83.8153 21.9083 83.1653 22.8583 82.3153 23.675C81.482 24.475 80.4986 25.1 79.3653 25.55C78.2486 25.9833 77.0236 26.2 75.6903 26.2ZM75.6903 23.975C76.657 23.975 77.5486 23.8083 78.3653 23.475C79.1986 23.1417 79.9153 22.675 80.5153 22.075C81.132 21.4583 81.607 20.7417 81.9403 19.925C82.2903 19.1083 82.4653 18.2167 82.4653 17.25C82.4653 16.2833 82.2903 15.3917 81.9403 14.575C81.607 13.7583 81.132 13.05 80.5153 12.45C79.9153 11.8333 79.1986 11.3583 78.3653 11.025C77.5486 10.6917 76.657 10.525 75.6903 10.525C74.707 10.525 73.7986 10.6917 72.9653 11.025C72.1486 11.3583 71.432 11.8333 70.8153 12.45C70.1986 13.05 69.7153 13.7583 69.3653 14.575C69.032 15.3917 68.8653 16.2833 68.8653 17.25C68.8653 18.2167 69.032 19.1083 69.3653 19.925C69.7153 20.7417 70.1986 21.4583 70.8153 22.075C71.432 22.675 72.1486 23.1417 72.9653 23.475C73.7986 23.8083 74.707 23.975 75.6903 23.975ZM96.6864 26.2C95.3364 26.2 94.0947 25.9833 92.9614 25.55C91.828 25.1 90.8447 24.475 90.0114 23.675C89.178 22.8583 88.528 21.9083 88.0614 20.825C87.5947 19.7417 87.3614 18.55 87.3614 17.25C87.3614 15.95 87.5947 14.7583 88.0614 13.675C88.528 12.5917 89.178 11.65 90.0114 10.85C90.8614 10.0333 91.853 9.40833 92.9864 8.975C94.1197 8.525 95.3697 8.3 96.7364 8.3C98.1197 8.3 99.3864 8.525 100.536 8.975C101.686 9.425 102.661 10.1 103.461 11L101.911 12.55C101.195 11.85 100.411 11.3417 99.5614 11.025C98.728 10.6917 97.8197 10.525 96.8364 10.525C95.8364 10.525 94.903 10.6917 94.0364 11.025C93.1864 11.3583 92.4447 11.825 91.8114 12.425C91.1947 13.025 90.7114 13.7417 90.3614 14.575C90.028 15.3917 89.8614 16.2833 89.8614 17.25C89.8614 18.2 90.028 19.0917 90.3614 19.925C90.7114 20.7417 91.1947 21.4583 91.8114 22.075C92.4447 22.675 93.1864 23.1417 94.0364 23.475C94.8864 23.8083 95.8114 23.975 96.8114 23.975C97.7447 23.975 98.6364 23.8333 99.4864 23.55C100.353 23.25 101.153 22.7583 101.886 22.075L103.311 23.975C102.445 24.7083 101.428 25.2667 100.261 25.65C99.1114 26.0167 97.9197 26.2 96.6864 26.2ZM100.911 23.65V17.15H103.311V23.975L100.911 23.65ZM115.998 26.2C114.665 26.2 113.423 25.975 112.273 25.525C111.14 25.075 110.156 24.45 109.323 23.65C108.49 22.8333 107.84 21.8833 107.373 20.8C106.906 19.7167 106.673 18.5333 106.673 17.25C106.673 15.9667 106.906 14.7833 107.373 13.7C107.84 12.6167 108.49 11.675 109.323 10.875C110.156 10.0583 111.14 9.425 112.273 8.975C113.406 8.525 114.648 8.3 115.998 8.3C117.331 8.3 118.556 8.525 119.673 8.975C120.806 9.40833 121.79 10.0333 122.623 10.85C123.473 11.65 124.123 12.5917 124.573 13.675C125.04 14.7583 125.273 15.95 125.273 17.25C125.273 18.55 125.04 19.7417 124.573 20.825C124.123 21.9083 123.473 22.8583 122.623 23.675C121.79 24.475 120.806 25.1 119.673 25.55C118.556 25.9833 117.331 26.2 115.998 26.2ZM115.998 23.975C116.965 23.975 117.856 23.8083 118.673 23.475C119.506 23.1417 120.223 22.675 120.823 22.075C121.44 21.4583 121.915 20.7417 122.248 19.925C122.598 19.1083 122.773 18.2167 122.773 17.25C122.773 16.2833 122.598 15.3917 122.248 14.575C121.915 13.7583 121.44 13.05 120.823 12.45C120.223 11.8333 119.506 11.3583 118.673 11.025C117.856 10.6917 116.965 10.525 115.998 10.525C115.015 10.525 114.106 10.6917 113.273 11.025C112.456 11.3583 111.74 11.8333 111.123 12.45C110.506 13.05 110.023 13.7583 109.673 14.575C109.34 15.3917 109.173 16.2833 109.173 17.25C109.173 18.2167 109.34 19.1083 109.673 19.925C110.023 20.7417 110.506 21.4583 111.123 22.075C111.74 22.675 112.456 23.1417 113.273 23.475C114.106 23.8083 115.015 23.975 115.998 23.975ZM136.344 26.2C134.044 26.2 132.236 25.5417 130.919 24.225C129.602 22.9083 128.944 20.9833 128.944 18.45V8.5H131.444V18.35C131.444 20.3 131.869 21.725 132.719 22.625C133.586 23.525 134.802 23.975 136.369 23.975C137.952 23.975 139.169 23.525 140.019 22.625C140.886 21.725 141.319 20.3 141.319 18.35V8.5H143.744V18.45C143.744 20.9833 143.086 22.9083 141.769 24.225C140.469 25.5417 138.661 26.2 136.344 26.2ZM152.027 26V10.675H146.027V8.5H160.502V10.675H154.502V26H152.027Z" fill="black"/>
</svg>
