<svg width="229" height="59" viewBox="0 0 229 59" fill="none" xmlns="http://www.w3.org/2000/svg">
<path d="M29.5 0C23.6655 -6.95763e-08 17.9619 1.73014 13.1107 4.97165C8.25943 8.21315 4.47834 12.8204 2.24555 18.2108C0.0127687 23.6013 -0.57143 29.5327 0.566834 35.2552C1.7051 40.9776 4.5147 46.234 8.64035 50.3596C12.766 54.4853 18.0224 57.2949 23.7448 58.4332C29.4673 59.5714 35.3987 58.9872 40.7892 56.7544C46.1796 54.5217 50.7869 50.7406 54.0284 45.8893C57.2699 41.0381 59 35.3345 59 29.5H36.6575C36.6575 30.9156 36.2377 32.2994 35.4512 33.4765C34.6647 34.6535 33.5469 35.5709 32.239 36.1126C30.9312 36.6544 29.4921 36.7961 28.1036 36.5199C26.7152 36.2438 25.4399 35.5621 24.4389 34.5611C23.4379 33.5601 22.7562 32.2848 22.4801 30.8964C22.2039 29.5079 22.3456 28.0688 22.8874 26.761C23.4291 25.4531 24.3465 24.3353 25.5235 23.5488C26.7006 22.7623 28.0844 22.3425 29.5 22.3425L29.5 0Z" fill="black"/>
<path d="M69.336 40.7502C67.7493 40.7502 66.3213 40.4782 65.052 39.9342C63.7827 39.3675 62.7853 38.5742 62.06 37.5542C61.3347 36.5342 60.972 35.3442 60.972 33.9842H65.12C65.2107 35.0042 65.6073 35.8429 66.31 36.5002C67.0353 37.1575 68.044 37.4862 69.336 37.4862C70.6733 37.4862 71.716 37.1689 72.464 36.5342C73.212 35.8769 73.586 35.0382 73.586 34.0182C73.586 33.2249 73.348 32.5789 72.872 32.0802C72.4187 31.5815 71.8407 31.1962 71.138 30.9242C70.458 30.6522 69.506 30.3575 68.282 30.0402C66.7407 29.6322 65.4827 29.2242 64.508 28.8162C63.556 28.3855 62.74 27.7282 62.06 26.8442C61.38 25.9602 61.04 24.7815 61.04 23.3082C61.04 21.9482 61.38 20.7582 62.06 19.7382C62.74 18.7182 63.692 17.9362 64.916 17.3922C66.14 16.8482 67.5567 16.5762 69.166 16.5762C71.4553 16.5762 73.3253 17.1542 74.776 18.3102C76.2493 19.4435 77.0653 21.0075 77.224 23.0022H72.94C72.872 22.1409 72.464 21.4042 71.716 20.7922C70.968 20.1802 69.982 19.8742 68.758 19.8742C67.6473 19.8742 66.7407 20.1575 66.038 20.7242C65.3353 21.2909 64.984 22.1069 64.984 23.1722C64.984 23.8975 65.1993 24.4982 65.63 24.9742C66.0833 25.4275 66.65 25.7902 67.33 26.0622C68.01 26.3342 68.9393 26.6289 70.118 26.9462C71.682 27.3769 72.9513 27.8075 73.926 28.2382C74.9233 28.6689 75.762 29.3375 76.442 30.2442C77.1447 31.1282 77.496 32.3182 77.496 33.8142C77.496 35.0155 77.1673 36.1489 76.51 37.2142C75.8753 38.2795 74.9347 39.1409 73.688 39.7982C72.464 40.4329 71.0133 40.7502 69.336 40.7502ZM97.3355 16.8822V20.0442H91.0455V40.5122H87.1695V20.0442H80.8455V16.8822H97.3355ZM105.137 20.0102V26.9462H113.297V30.1082H105.137V37.3502H114.317V40.5122H101.261V16.8482H114.317V20.0102H105.137ZM135.615 23.9202C135.615 25.1215 135.332 26.2549 134.765 27.3202C134.198 28.3855 133.292 29.2582 132.045 29.9382C130.798 30.5955 129.2 30.9242 127.251 30.9242H122.967V40.5122H119.091V16.8822H127.251C129.064 16.8822 130.594 17.1995 131.841 17.8342C133.11 18.4462 134.051 19.2849 134.663 20.3502C135.298 21.4155 135.615 22.6055 135.615 23.9202ZM127.251 27.7622C128.724 27.7622 129.824 27.4335 130.549 26.7762C131.274 26.0962 131.637 25.1442 131.637 23.9202C131.637 21.3362 130.175 20.0442 127.251 20.0442H122.967V27.7622H127.251ZM151.986 16.8822V31.9442C151.986 33.7349 152.45 35.0835 153.38 35.9902C154.332 36.8969 155.646 37.3502 157.324 37.3502C159.024 37.3502 160.338 36.8969 161.268 35.9902C162.22 35.0835 162.696 33.7349 162.696 31.9442V16.8822H166.572V31.8762C166.572 33.8029 166.152 35.4349 165.314 36.7722C164.475 38.1095 163.353 39.1069 161.948 39.7642C160.542 40.4215 158.99 40.7502 157.29 40.7502C155.59 40.7502 154.037 40.4215 152.632 39.7642C151.249 39.1069 150.15 38.1095 149.334 36.7722C148.518 35.4349 148.11 33.8029 148.11 31.8762V16.8822H151.986ZM188.142 23.9202C188.142 25.1215 187.859 26.2549 187.292 27.3202C186.726 28.3855 185.819 29.2582 184.572 29.9382C183.326 30.5955 181.728 30.9242 179.778 30.9242H175.494V40.5122H171.618V16.8822H179.778C181.592 16.8822 183.122 17.1995 184.368 17.8342C185.638 18.4462 186.578 19.2849 187.19 20.3502C187.825 21.4155 188.142 22.6055 188.142 23.9202ZM179.778 27.7622C181.252 27.7622 182.351 27.4335 183.076 26.7762C183.802 26.0962 184.164 25.1442 184.164 23.9202C184.164 21.3362 182.702 20.0442 179.778 20.0442H175.494V27.7622H179.778Z" fill="black"/>
</svg>
