<svg width="265" height="263" viewBox="0 0 265 263" fill="none" xmlns="http://www.w3.org/2000/svg">
<path d="M260.418 218.835V201.34C260.418 194.191 256.19 187.726 249.646 184.87C228.369 175.585 209.167 160.165 195.578 141.451C181.043 121.435 173.36 98.592 173.36 75.3922C173.36 69.431 173.818 63.4011 174.72 57.4709C175.739 50.7651 172.992 44.1327 167.549 40.1612L116.108 2.6226C113.203 0.502854 109.648 -0.359708 106.096 0.197005C102.544 0.752 99.4208 2.65697 97.3016 5.56138L28.3934 99.9975C26.9226 99.4025 25.3172 99.2043 23.7101 99.4551C21.3669 99.8217 19.3068 101.078 17.9092 102.994L1.70271 125.204C-1.18223 129.158 -0.312799 134.722 3.64147 137.608L159.82 251.574C170.035 259.028 182.118 262.968 194.764 262.968H256.122C261.018 262.968 265 258.985 265 254.09V226.598C265 223.261 263.147 220.351 260.418 218.835ZM104.241 10.6251C105.008 9.57464 106.137 8.88505 107.422 8.68459C108.705 8.48126 109.992 8.79456 111.044 9.56204L162.485 47.1012C165.329 49.1757 166.762 52.654 166.225 56.1787C165.258 62.5357 164.768 68.9997 164.768 75.3922C164.768 80.323 165.093 85.2366 165.727 90.113L152.241 94.6085C149.99 95.3594 148.774 97.7919 149.524 100.042C150.125 101.842 151.801 102.98 153.599 102.98C154.049 102.98 154.507 102.909 154.958 102.759L167.167 98.6888C167.861 102.034 168.709 105.354 169.697 108.644L156.823 112.936C154.572 113.687 153.356 116.119 154.106 118.37C154.707 120.17 156.383 121.308 158.181 121.308C158.631 121.308 159.089 121.236 159.54 121.086L172.458 116.78C173.67 119.966 175.027 123.116 176.516 126.226L163.266 130.643C161.016 131.393 159.8 133.826 160.55 136.076C161.15 137.876 162.826 139.014 164.624 139.014C165.075 139.014 165.533 138.943 165.983 138.793L180.541 133.94C182.257 136.972 184.112 139.955 186.097 142.887L171.428 147.777C169.177 148.527 167.961 150.96 168.712 153.211C169.312 155.011 170.988 156.149 172.786 156.149C173.236 156.149 173.694 156.077 174.145 155.927L189.896 150.677C190.393 150.511 190.836 150.259 191.222 149.949C205.497 168.324 224.873 183.43 246.209 192.741C249.621 194.231 251.826 197.604 251.826 201.337V217.718H194.762C191.768 217.718 188.908 216.786 186.49 215.021L35.4967 104.838L104.241 10.6251ZM256.409 254.09C256.409 254.248 256.28 254.377 256.122 254.377H194.763C183.95 254.377 173.618 251.008 164.884 244.634L8.70515 130.668C8.57743 130.575 8.54994 130.395 8.64272 130.268L24.8493 108.058C24.8664 108.034 24.9191 107.962 25.0366 107.944C25.0532 107.941 25.0698 107.94 25.0847 107.94C25.1729 107.94 25.2284 107.98 25.249 107.995L181.427 221.964C185.325 224.809 189.936 226.312 194.762 226.312H256.122C256.28 226.312 256.409 226.441 256.409 226.599V254.09Z" fill="white"/>
</svg>
