<svg width="43" height="50" viewBox="0 0 43 50" fill="none" xmlns="http://www.w3.org/2000/svg">
<path d="M33.7857 15.625V12.5C33.7857 5.60742 28.2743 0 21.5 0C14.7256 0 9.21429 5.60742 9.21429 12.5V15.625H0V42.1875C0 46.5022 3.43779 50 7.67857 50H35.3214C39.5622 50 43 46.5022 43 42.1875V15.625H33.7857ZM15.3571 12.5C15.3571 9.05371 18.1128 6.25 21.5 6.25C24.8872 6.25 27.6429 9.05371 27.6429 12.5V15.625H15.3571V12.5ZM30.7143 24.2188C29.442 24.2188 28.4107 23.1694 28.4107 21.875C28.4107 20.5806 29.442 19.5312 30.7143 19.5312C31.9865 19.5312 33.0179 20.5806 33.0179 21.875C33.0179 23.1694 31.9865 24.2188 30.7143 24.2188ZM12.2857 24.2188C11.0135 24.2188 9.98214 23.1694 9.98214 21.875C9.98214 20.5806 11.0135 19.5312 12.2857 19.5312C13.558 19.5312 14.5893 20.5806 14.5893 21.875C14.5893 23.1694 13.558 24.2188 12.2857 24.2188Z" fill="black"/>
</svg>
