<svg width="25" height="27" viewBox="0 0 25 32" fill="none" xmlns="http://www.w3.org/2000/svg">
<path d="M19.6429 10V8C19.6429 3.58875 16.4386 0 12.5 0C8.56138 0 5.35714 3.58875 5.35714 8V10H0V27C0 29.7614 1.99872 32 4.46429 32H20.5357C23.0013 32 25 29.7614 25 27V10H19.6429ZM8.92857 8C8.92857 5.79437 10.5307 4 12.5 4C14.4693 4 16.0714 5.79437 16.0714 8V10H8.92857V8ZM17.8571 15.5C17.1175 15.5 16.5179 14.8284 16.5179 14C16.5179 13.1716 17.1175 12.5 17.8571 12.5C18.5968 12.5 19.1964 13.1716 19.1964 14C19.1964 14.8284 18.5968 15.5 17.8571 15.5ZM7.14286 15.5C6.40318 15.5 5.80357 14.8284 5.80357 14C5.80357 13.1716 6.40318 12.5 7.14286 12.5C7.88253 12.5 8.48214 13.1716 8.48214 14C8.48214 14.8284 7.88253 15.5 7.14286 15.5Z" fill="black"/>
</svg>
