<svg width="265" height="263" viewBox="0 0 265 263" fill="none" xmlns="http://www.w3.org/2000/svg">
<path d="M260.418 218.835V201.34C260.418 194.191 256.19 187.726 249.647 184.87C228.369 175.585 209.167 160.165 195.579 141.451C181.043 121.435 173.36 98.592 173.36 75.3922C173.36 69.4311 173.818 63.4011 174.72 57.4709C175.74 50.7651 172.992 44.1327 167.55 40.1612L116.109 2.62263C113.204 0.502884 109.649 -0.359677 106.097 0.197036C102.544 0.75203 99.4212 2.657 97.302 5.56141L28.3939 99.9976C26.9231 99.4025 25.3177 99.2043 23.7105 99.4552C21.3674 99.8217 19.3072 101.078 17.9097 102.994L1.70318 125.204C-1.18176 129.158 -0.312326 134.722 3.64194 137.608L159.821 251.574C170.035 259.028 182.118 262.968 194.764 262.968H256.123C261.018 262.968 265 258.986 265 254.09V226.598C265 223.261 263.148 220.351 260.418 218.835ZM104.242 10.6251C105.008 9.57467 106.138 8.88508 107.423 8.68462C108.706 8.48129 109.992 8.79459 111.044 9.56207L162.486 47.1012C165.329 49.1757 166.762 52.6541 166.226 56.1788C165.259 62.5357 164.769 68.9998 164.769 75.3922C164.769 80.323 165.094 85.2367 165.728 90.1131L152.241 94.6086C149.99 95.3594 148.775 97.7919 149.525 100.042C150.125 101.842 151.802 102.98 153.599 102.98C154.05 102.98 154.508 102.909 154.959 102.759L167.168 98.6888C167.861 102.034 168.709 105.354 169.698 108.644L156.823 112.936C154.572 113.687 153.357 116.119 154.107 118.37C154.707 120.17 156.384 121.308 158.181 121.308C158.632 121.308 159.09 121.236 159.541 121.086L172.459 116.78C173.671 119.966 175.027 123.116 176.517 126.226L163.267 130.643C161.017 131.393 159.8 133.826 160.55 136.076C161.151 137.876 162.826 139.014 164.625 139.014C165.075 139.014 165.533 138.943 165.984 138.793L180.541 133.94C182.258 136.972 184.112 139.955 186.098 142.887L171.429 147.777C169.178 148.527 167.962 150.96 168.712 153.211C169.312 155.011 170.988 156.149 172.787 156.149C173.237 156.149 173.695 156.077 174.146 155.927L189.896 150.677C190.393 150.511 190.837 150.259 191.223 149.949C205.497 168.324 224.874 183.43 246.209 192.741C249.622 194.231 251.827 197.604 251.827 201.337V217.718H194.762C191.769 217.718 188.908 216.786 186.491 215.021L35.4972 104.838L104.242 10.6251ZM256.409 254.09C256.409 254.248 256.28 254.377 256.123 254.377H194.764C183.951 254.377 173.619 251.008 164.884 244.634L8.70563 130.668C8.5779 130.575 8.55041 130.395 8.6432 130.268L24.8497 108.058C24.8669 108.034 24.9196 107.962 25.037 107.944C25.0536 107.941 25.0702 107.94 25.0851 107.94C25.1733 107.94 25.2289 107.98 25.2495 107.995L181.427 221.964C185.326 224.809 189.937 226.312 194.763 226.312H256.123C256.28 226.312 256.409 226.441 256.409 226.599V254.09Z" fill="black"/>
</svg>
