<svg width="104" height="25" viewBox="0 0 104 25" fill="none" xmlns="http://www.w3.org/2000/svg">
<path d="M12.5 0C10.0277 -2.94815e-08 7.61099 0.733112 5.55537 2.10663C3.49976 3.48015 1.8976 5.43238 0.951506 7.71646C0.00541045 10.0005 -0.242131 12.5139 0.240184 14.9386C0.722499 17.3634 1.91301 19.5907 3.66117 21.3388C5.40932 23.087 7.63661 24.2775 10.0614 24.7598C12.4861 25.2421 14.9995 24.9946 17.2835 24.0485C19.5676 23.1024 21.5199 21.5002 22.8934 19.4446C24.2669 17.389 25 14.9723 25 12.5H15.5328C15.5328 13.0998 15.3549 13.6862 15.0217 14.1849C14.6884 14.6837 14.2148 15.0724 13.6606 15.302C13.1064 15.5315 12.4966 15.5916 11.9083 15.4745C11.32 15.3575 10.7796 15.0687 10.3555 14.6445C9.93132 14.2204 9.64248 13.68 9.52545 13.0917C9.40843 12.5034 9.46849 11.8936 9.69804 11.3394C9.92759 10.7852 10.3163 10.3116 10.8151 9.9783C11.3138 9.64505 11.9002 9.46718 12.5 9.46718L12.5 0Z" fill="#D9D9D9"/>
<path d="M29.944 18.128C29.0907 18.128 28.2747 18 27.496 17.744C26.7173 17.4773 26.104 17.136 25.656 16.72L26.248 15.472C26.6747 15.8453 27.2187 16.1547 27.88 16.4C28.5413 16.6453 29.2293 16.768 29.944 16.768C30.5947 16.768 31.1227 16.6933 31.528 16.544C31.9333 16.3947 32.232 16.192 32.424 15.936C32.616 15.6693 32.712 15.3707 32.712 15.04C32.712 14.656 32.584 14.3467 32.328 14.112C32.0827 13.8773 31.7573 13.6907 31.352 13.552C30.9573 13.4027 30.52 13.2747 30.04 13.168C29.56 13.0613 29.0747 12.9387 28.584 12.8C28.104 12.6507 27.6613 12.464 27.256 12.24C26.8613 12.016 26.5413 11.7173 26.296 11.344C26.0507 10.96 25.928 10.4693 25.928 9.872C25.928 9.296 26.0773 8.768 26.376 8.288C26.6853 7.79733 27.1547 7.408 27.784 7.12C28.424 6.82133 29.2347 6.672 30.216 6.672C30.8667 6.672 31.512 6.75733 32.152 6.928C32.792 7.09867 33.3467 7.344 33.816 7.664L33.288 8.944C32.808 8.624 32.3013 8.39467 31.768 8.256C31.2347 8.10667 30.7173 8.032 30.216 8.032C29.5867 8.032 29.0693 8.112 28.664 8.272C28.2587 8.432 27.96 8.64533 27.768 8.912C27.5867 9.17867 27.496 9.47733 27.496 9.808C27.496 10.2027 27.6187 10.5173 27.864 10.752C28.12 10.9867 28.4453 11.1733 28.84 11.312C29.2453 11.4507 29.688 11.5787 30.168 11.696C30.648 11.8027 31.128 11.9253 31.608 12.064C32.0987 12.2027 32.5413 12.384 32.936 12.608C33.3413 12.832 33.6667 13.1307 33.912 13.504C34.1573 13.8773 34.28 14.3573 34.28 14.944C34.28 15.5093 34.1253 16.0373 33.816 16.528C33.5067 17.008 33.0267 17.3973 32.376 17.696C31.736 17.984 30.9253 18.128 29.944 18.128ZM40.9215 9.44C41.6148 9.44 42.2228 9.57333 42.7455 9.84C43.2788 10.1067 43.6948 10.512 43.9935 11.056C44.2922 11.6 44.4415 12.288 44.4415 13.12V18H42.9055V13.296C42.9055 12.4747 42.7028 11.856 42.2975 11.44C41.9028 11.024 41.3428 10.816 40.6175 10.816C40.0735 10.816 39.5988 10.9227 39.1935 11.136C38.7882 11.3493 38.4735 11.664 38.2495 12.08C38.0362 12.496 37.9295 13.0133 37.9295 13.632V18H36.3935V6.128H37.9295V11.808L37.6255 11.2C37.9028 10.6453 38.3295 10.2133 38.9055 9.904C39.4815 9.59467 40.1535 9.44 40.9215 9.44ZM50.9161 18.096C50.0628 18.096 49.3055 17.9093 48.6441 17.536C47.9828 17.1627 47.4601 16.6507 47.0761 16C46.6921 15.3387 46.5001 14.592 46.5001 13.76C46.5001 12.9173 46.6921 12.1707 47.0761 11.52C47.4601 10.8693 47.9828 10.3627 48.6441 10C49.3055 9.62667 50.0628 9.44 50.9161 9.44C51.7588 9.44 52.5108 9.62667 53.1721 10C53.8441 10.3627 54.3668 10.8693 54.7401 11.52C55.1241 12.16 55.3161 12.9067 55.3161 13.76C55.3161 14.6027 55.1241 15.3493 54.7401 16C54.3668 16.6507 53.8441 17.1627 53.1721 17.536C52.5108 17.9093 51.7588 18.096 50.9161 18.096ZM50.9161 16.752C51.4601 16.752 51.9455 16.6293 52.3721 16.384C52.8095 16.1387 53.1508 15.792 53.3961 15.344C53.6415 14.8853 53.7641 14.3573 53.7641 13.76C53.7641 13.152 53.6415 12.6293 53.3961 12.192C53.1508 11.744 52.8095 11.3973 52.3721 11.152C51.9455 10.9067 51.4601 10.784 50.9161 10.784C50.3721 10.784 49.8868 10.9067 49.4601 11.152C49.0335 11.3973 48.6921 11.744 48.4361 12.192C48.1801 12.6293 48.0521 13.152 48.0521 13.76C48.0521 14.3573 48.1801 14.8853 48.4361 15.344C48.6921 15.792 49.0335 16.1387 49.4601 16.384C49.8868 16.6293 50.3721 16.752 50.9161 16.752ZM61.2164 18.096C60.3097 18.096 59.5097 17.9093 58.8164 17.536C58.1337 17.1627 57.6004 16.6507 57.2164 16C56.843 15.3493 56.6564 14.6027 56.6564 13.76C56.6564 12.9173 56.8377 12.1707 57.2004 11.52C57.5737 10.8693 58.0804 10.3627 58.7204 10C59.371 9.62667 60.1017 9.44 60.9124 9.44C61.7337 9.44 62.459 9.62133 63.0884 9.984C63.7177 10.3467 64.2084 10.8587 64.5604 11.52C64.923 12.1707 65.1044 12.9333 65.1044 13.808C65.1044 13.872 65.099 13.9467 65.0884 14.032C65.0884 14.1173 65.083 14.1973 65.0724 14.272H57.8564V13.168H64.2724L63.6484 13.552C63.659 13.008 63.547 12.5227 63.3124 12.096C63.0777 11.6693 62.7524 11.3387 62.3364 11.104C61.931 10.8587 61.4564 10.736 60.9124 10.736C60.379 10.736 59.9044 10.8587 59.4884 11.104C59.0724 11.3387 58.747 11.6747 58.5124 12.112C58.2777 12.5387 58.1604 13.0293 58.1604 13.584V13.84C58.1604 14.4053 58.2884 14.912 58.5444 15.36C58.811 15.7973 59.179 16.1387 59.6484 16.384C60.1177 16.6293 60.6564 16.752 61.2644 16.752C61.7657 16.752 62.219 16.6667 62.6244 16.496C63.0404 16.3253 63.403 16.0693 63.7124 15.728L64.5604 16.72C64.1764 17.168 63.6964 17.5093 63.1204 17.744C62.555 17.9787 61.9204 18.096 61.2164 18.096ZM70.7253 18.128C69.8719 18.128 69.0559 18 68.2773 17.744C67.4986 17.4773 66.8853 17.136 66.4373 16.72L67.0293 15.472C67.4559 15.8453 67.9999 16.1547 68.6613 16.4C69.3226 16.6453 70.0106 16.768 70.7253 16.768C71.3759 16.768 71.9039 16.6933 72.3093 16.544C72.7146 16.3947 73.0133 16.192 73.2053 15.936C73.3973 15.6693 73.4933 15.3707 73.4933 15.04C73.4933 14.656 73.3653 14.3467 73.1093 14.112C72.8639 13.8773 72.5386 13.6907 72.1333 13.552C71.7386 13.4027 71.3013 13.2747 70.8213 13.168C70.3413 13.0613 69.8559 12.9387 69.3653 12.8C68.8853 12.6507 68.4426 12.464 68.0373 12.24C67.6426 12.016 67.3226 11.7173 67.0773 11.344C66.8319 10.96 66.7093 10.4693 66.7093 9.872C66.7093 9.296 66.8586 8.768 67.1573 8.288C67.4666 7.79733 67.9359 7.408 68.5653 7.12C69.2053 6.82133 70.0159 6.672 70.9973 6.672C71.6479 6.672 72.2933 6.75733 72.9333 6.928C73.5733 7.09867 74.1279 7.344 74.5972 7.664L74.0693 8.944C73.5893 8.624 73.0826 8.39467 72.5493 8.256C72.0159 8.10667 71.4986 8.032 70.9973 8.032C70.3679 8.032 69.8506 8.112 69.4453 8.272C69.0399 8.432 68.7413 8.64533 68.5493 8.912C68.3679 9.17867 68.2773 9.47733 68.2773 9.808C68.2773 10.2027 68.3999 10.5173 68.6453 10.752C68.9013 10.9867 69.2266 11.1733 69.6213 11.312C70.0266 11.4507 70.4693 11.5787 70.9493 11.696C71.4293 11.8027 71.9093 11.9253 72.3893 12.064C72.8799 12.2027 73.3226 12.384 73.7173 12.608C74.1226 12.832 74.4479 13.1307 74.6933 13.504C74.9386 13.8773 75.0613 14.3573 75.0613 14.944C75.0613 15.5093 74.9066 16.0373 74.5972 16.528C74.2879 17.008 73.8079 17.3973 73.1573 17.696C72.5173 17.984 71.7066 18.128 70.7253 18.128ZM80.0868 18.096C79.2334 18.096 78.5721 17.8667 78.1028 17.408C77.6334 16.9493 77.3988 16.2933 77.3988 15.44V7.664H78.9348V15.376C78.9348 15.8347 79.0468 16.1867 79.2708 16.432C79.5054 16.6773 79.8361 16.8 80.2628 16.8C80.7428 16.8 81.1428 16.6667 81.4628 16.4L81.9428 17.504C81.7081 17.7067 81.4254 17.856 81.0948 17.952C80.7748 18.048 80.4388 18.096 80.0868 18.096ZM75.9588 10.784V9.52H81.3668V10.784H75.9588ZM87.1505 18.096C86.2972 18.096 85.5398 17.9093 84.8785 17.536C84.2172 17.1627 83.6945 16.6507 83.3105 16C82.9265 15.3387 82.7345 14.592 82.7345 13.76C82.7345 12.9173 82.9265 12.1707 83.3105 11.52C83.6945 10.8693 84.2172 10.3627 84.8785 10C85.5398 9.62667 86.2972 9.44 87.1505 9.44C87.9932 9.44 88.7452 9.62667 89.4065 10C90.0785 10.3627 90.6012 10.8693 90.9745 11.52C91.3585 12.16 91.5505 12.9067 91.5505 13.76C91.5505 14.6027 91.3585 15.3493 90.9745 16C90.6012 16.6507 90.0785 17.1627 89.4065 17.536C88.7452 17.9093 87.9932 18.096 87.1505 18.096ZM87.1505 16.752C87.6945 16.752 88.1798 16.6293 88.6065 16.384C89.0438 16.1387 89.3852 15.792 89.6305 15.344C89.8758 14.8853 89.9985 14.3573 89.9985 13.76C89.9985 13.152 89.8758 12.6293 89.6305 12.192C89.3852 11.744 89.0438 11.3973 88.6065 11.152C88.1798 10.9067 87.6945 10.784 87.1505 10.784C86.6065 10.784 86.1212 10.9067 85.6945 11.152C85.2678 11.3973 84.9265 11.744 84.6705 12.192C84.4145 12.6293 84.2865 13.152 84.2865 13.76C84.2865 14.3573 84.4145 14.8853 84.6705 15.344C84.9265 15.792 85.2678 16.1387 85.6945 16.384C86.1212 16.6293 86.6065 16.752 87.1505 16.752ZM98.1708 18.096C97.4668 18.096 96.8214 17.936 96.2348 17.616C95.6588 17.2853 95.1948 16.8 94.8428 16.16C94.5014 15.52 94.3307 14.72 94.3307 13.76C94.3307 12.8 94.4961 12 94.8268 11.36C95.1681 10.72 95.6268 10.24 96.2028 9.92C96.7894 9.6 97.4454 9.44 98.1708 9.44C99.0028 9.44 99.7388 9.62133 100.379 9.984C101.019 10.3467 101.525 10.8533 101.899 11.504C102.272 12.144 102.459 12.896 102.459 13.76C102.459 14.624 102.272 15.3813 101.899 16.032C101.525 16.6827 101.019 17.1893 100.379 17.552C99.7388 17.9147 99.0028 18.096 98.1708 18.096ZM93.6748 21.104V9.52H95.1468V11.808L95.0508 13.776L95.2108 15.744V21.104H93.6748ZM98.0428 16.752C98.5868 16.752 99.0721 16.6293 99.4988 16.384C99.9361 16.1387 100.277 15.792 100.523 15.344C100.779 14.8853 100.907 14.3573 100.907 13.76C100.907 13.152 100.779 12.6293 100.523 12.192C100.277 11.744 99.9361 11.3973 99.4988 11.152C99.0721 10.9067 98.5868 10.784 98.0428 10.784C97.5094 10.784 97.0241 10.9067 96.5868 11.152C96.1601 11.3973 95.8188 11.744 95.5628 12.192C95.3174 12.6293 95.1948 13.152 95.1948 13.76C95.1948 14.3573 95.3174 14.8853 95.5628 15.344C95.8188 15.792 96.1601 16.1387 96.5868 16.384C97.0241 16.6293 97.5094 16.752 98.0428 16.752Z" fill="black"/>
</svg>
