<svg width="36" height="39" viewBox="0 0 36 39" fill="none" xmlns="http://www.w3.org/2000/svg">
<path d="M4.74 38.12C3.588 38.12 2.684 37.796 2.028 37.148C1.38 36.5 1.056 35.564 1.056 34.34V29.6H2.616V34.28C2.616 35.144 2.8 35.772 3.168 36.164C3.544 36.556 4.072 36.752 4.752 36.752C5.432 36.752 5.956 36.556 6.324 36.164C6.692 35.772 6.876 35.144 6.876 34.28V29.6H8.412V34.34C8.412 35.564 8.084 36.5 7.428 37.148C6.78 37.796 5.884 38.12 4.74 38.12ZM13.0328 38.084C12.4968 38.084 11.9808 38.016 11.4848 37.88C10.9968 37.736 10.6088 37.564 10.3208 37.364L10.8968 36.224C11.1848 36.408 11.5288 36.56 11.9288 36.68C12.3288 36.8 12.7288 36.86 13.1288 36.86C13.6008 36.86 13.9408 36.796 14.1488 36.668C14.3648 36.54 14.4728 36.368 14.4728 36.152C14.4728 35.976 14.4008 35.844 14.2568 35.756C14.1128 35.66 13.9248 35.588 13.6928 35.54C13.4608 35.492 13.2008 35.448 12.9128 35.408C12.6328 35.368 12.3488 35.316 12.0608 35.252C11.7808 35.18 11.5248 35.08 11.2928 34.952C11.0608 34.816 10.8728 34.636 10.7288 34.412C10.5848 34.188 10.5128 33.892 10.5128 33.524C10.5128 33.116 10.6288 32.764 10.8608 32.468C11.0928 32.164 11.4168 31.932 11.8328 31.772C12.2568 31.604 12.7568 31.52 13.3328 31.52C13.7648 31.52 14.2008 31.568 14.6408 31.664C15.0808 31.76 15.4448 31.896 15.7328 32.072L15.1568 33.212C14.8528 33.028 14.5448 32.904 14.2328 32.84C13.9288 32.768 13.6248 32.732 13.3208 32.732C12.8648 32.732 12.5248 32.8 12.3008 32.936C12.0848 33.072 11.9768 33.244 11.9768 33.452C11.9768 33.644 12.0488 33.788 12.1928 33.884C12.3368 33.98 12.5248 34.056 12.7568 34.112C12.9888 34.168 13.2448 34.216 13.5248 34.256C13.8128 34.288 14.0968 34.34 14.3768 34.412C14.6568 34.484 14.9128 34.584 15.1448 34.712C15.3848 34.832 15.5768 35.004 15.7208 35.228C15.8648 35.452 15.9368 35.744 15.9368 36.104C15.9368 36.504 15.8168 36.852 15.5768 37.148C15.3448 37.444 15.0128 37.676 14.5808 37.844C14.1488 38.004 13.6328 38.084 13.0328 38.084ZM20.8405 38.084C20.1285 38.084 19.5045 37.944 18.9685 37.664C18.4405 37.376 18.0285 36.984 17.7325 36.488C17.4445 35.992 17.3005 35.428 17.3005 34.796C17.3005 34.156 17.4405 33.592 17.7205 33.104C18.0085 32.608 18.4005 32.22 18.8965 31.94C19.4005 31.66 19.9725 31.52 20.6125 31.52C21.2365 31.52 21.7925 31.656 22.2805 31.928C22.7685 32.2 23.1525 32.584 23.4325 33.08C23.7125 33.576 23.8525 34.16 23.8525 34.832C23.8525 34.896 23.8485 34.968 23.8405 35.048C23.8405 35.128 23.8365 35.204 23.8285 35.276H18.4885V34.28H23.0365L22.4485 34.592C22.4565 34.224 22.3805 33.9 22.2205 33.62C22.0605 33.34 21.8405 33.12 21.5605 32.96C21.2885 32.8 20.9725 32.72 20.6125 32.72C20.2445 32.72 19.9205 32.8 19.6405 32.96C19.3685 33.12 19.1525 33.344 18.9925 33.632C18.8405 33.912 18.7645 34.244 18.7645 34.628V34.868C18.7645 35.252 18.8525 35.592 19.0285 35.888C19.2045 36.184 19.4525 36.412 19.7725 36.572C20.0925 36.732 20.4605 36.812 20.8765 36.812C21.2365 36.812 21.5605 36.756 21.8485 36.644C22.1365 36.532 22.3925 36.356 22.6165 36.116L23.4205 37.04C23.1325 37.376 22.7685 37.636 22.3285 37.82C21.8965 37.996 21.4005 38.084 20.8405 38.084ZM25.8934 38V31.592H27.3214V33.356L27.1534 32.84C27.3454 32.408 27.6454 32.08 28.0534 31.856C28.4694 31.632 28.9854 31.52 29.6014 31.52V32.948C29.5374 32.932 29.4774 32.924 29.4214 32.924C29.3654 32.916 29.3094 32.912 29.2534 32.912C28.6854 32.912 28.2334 33.08 27.8974 33.416C27.5614 33.744 27.3934 34.236 27.3934 34.892V38H25.8934Z" fill="white"/>
<path d="M28 26V23.1111C28 21.5788 27.2888 20.1092 26.023 19.0256C24.7571 17.9421 23.0402 17.3333 21.25 17.3333H7.75C5.95979 17.3333 4.2429 17.9421 2.97703 19.0256C1.71116 20.1092 1 21.5788 1 23.1111V26" fill="black"/>
<path d="M14.5 11.9167C18.0899 11.9167 21 9.24903 21 5.95833C21 2.66764 18.0899 0 14.5 0C10.9101 0 8 2.66764 8 5.95833C8 9.24903 10.9101 11.9167 14.5 11.9167Z" fill="black"/>
</svg>
