<svg width="44" height="41" viewBox="0 0 44 41" fill="none" xmlns="http://www.w3.org/2000/svg">
<path d="M22.1461 23.2332C28.7918 23.2332 34.1836 18.1196 34.1836 11.8168C34.1836 5.51399 28.7918 0.400391 22.1461 0.400391C15.5004 0.400391 10.1086 5.51399 10.1086 11.8168C10.1086 18.1196 15.5004 23.2332 22.1461 23.2332ZM32.8461 25.7702H28.2401C26.3843 26.5788 24.3195 27.0387 22.1461 27.0387C19.9727 27.0387 17.9163 26.5788 16.0521 25.7702H11.4461C5.53602 25.7702 0.746094 30.3129 0.746094 35.9181V37.1866C0.746094 39.2875 2.54336 40.992 4.75859 40.992H39.5336C41.7488 40.992 43.5461 39.2875 43.5461 37.1866V35.9181C43.5461 30.3129 38.7562 25.7702 32.8461 25.7702Z" fill="black"/>
</svg>
